<?xml version="1.0" standalone="no"?>
<!DOCTYPE svg PUBLIC "-//W3C//DTD SVG 20010904//EN"
 "http://www.w3.org/TR/2001/REC-SVG-20010904/DTD/svg10.dtd">
<svg version="1.0" xmlns="http://www.w3.org/2000/svg"
 width="260.000000pt" height="260.000000pt" viewBox="0 0 260.000000 260.000000"
 preserveAspectRatio="xMidYMid meet">
<metadata>
Created by potrace 1.11, written by Peter Selinger 2001-2013
</metadata>
<g transform="translate(0.000000,260.000000) scale(0.100000,-0.100000)"
fill="#000000" stroke="none">
<path d="M1160 2384 c-231 -35 -404 -107 -559 -231 -165 -131 -293 -340 -357
-579 -36 -136 -45 -358 -19 -489 46 -236 159 -440 318 -575 158 -134 317 -222
486 -268 85 -22 115 -26 256 -25 140 0 172 3 257 26 216 57 426 188 574 357
45 52 45 53 7 16 -23 -21 -46 -35 -53 -31 -6 4 -25 -4 -43 -17 -61 -47 -62
-41 0 25 85 92 173 226 173 266 0 31 -35 2 -93 -76 -62 -82 -207 -237 -207
-220 0 4 30 42 66 85 68 79 123 163 149 226 25 59 4 41 -55 -47 -58 -86 -181
-217 -240 -254 -62 -39 -173 -95 -194 -98 -12 -1 -50 -11 -86 -21 -147 -41
-458 -13 -558 50 -23 14 -46 26 -50 26 -16 0 -155 114 -204 168 -79 84 -151
212 -162 287 -2 11 -12 49 -22 85 -26 93 -25 303 3 425 20 88 72 195 95 195
10 0 9 -10 -6 -55 -6 -16 -3 -15 11 5 10 13 35 42 56 65 l39 40 -60 -120 c-69
-137 -95 -215 -72 -215 5 0 27 38 48 84 42 89 102 186 114 186 5 0 -12 -39
-36 -88 -43 -85 -81 -191 -71 -200 2 -3 9 8 16 24 46 116 103 216 151 267 58
62 72 70 58 32 -6 -15 -6 -25 0 -25 5 0 46 27 92 60 99 71 196 109 303 116 27
2 51 7 53 12 1 4 42 4 90 0 75 -8 102 -16 192 -59 114 -55 143 -81 231 -206
63 -92 98 -185 105 -288 2 -27 7 -51 12 -53 9 -3 6 -45 -9 -141 -12 -74 -62
-179 -113 -236 -20 -22 -36 -45 -36 -51 0 -11 -60 -68 -134 -127 -36 -29 -131
-70 -246 -106 l-65 -21 53 6 c54 5 126 25 222 63 42 16 50 17 35 5 -29 -24
-130 -69 -208 -93 -82 -25 -93 -31 -78 -41 21 -12 124 10 205 45 44 19 82 33
84 31 2 -2 -14 -16 -35 -30 -20 -14 -31 -26 -23 -26 9 -1 5 -7 -10 -16 -54
-33 17 -2 88 39 207 117 340 290 395 512 22 87 39 229 31 262 -25 106 -80 240
-126 306 -20 28 -18 32 25 39 15 3 10 15 -32 79 -57 87 -171 198 -254 248
-116 69 -285 121 -392 121 -70 0 -125 9 -125 20 0 4 30 17 68 28 l67 22 -110
-5 c-167 -7 -300 -46 -434 -127 -34 -21 -65 -38 -68 -38 -15 0 -140 -95 -202
-154 -41 -39 -66 -59 -57 -45 9 14 13 28 10 31 -8 9 122 144 188 194 273 211
658 265 1006 143 48 -17 105 -40 127 -51 29 -14 35 -15 20 -3 -56 45 -242 118
-385 150 l-65 15 70 -6 c39 -3 112 -15 163 -25 51 -11 103 -19 115 -17 20 3
18 6 -18 30 -43 29 -157 62 -270 78 -67 9 -232 11 -285 4z m35 -61 c-284 -64
-421 -119 -565 -226 -30 -22 -47 -31 -36 -19 28 32 152 115 231 154 114 57
257 97 345 96 25 0 36 -2 25 -5z m-138 -239 c-16 -9 -31 -13 -34 -10 -3 3 5
10 18 15 37 15 47 12 16 -5z m388 -3 l50 -7 -60 -8 c-95 -11 -102 -13 -62 -15
73 -2 26 -20 -51 -18 -110 2 -257 -51 -381 -136 -24 -16 -41 -25 -37 -19 4 6
36 30 72 54 64 41 65 42 39 50 -15 3 -33 4 -41 1 -8 -3 -14 -2 -14 1 0 9 88
47 120 51 50 8 225 46 229 51 6 6 78 3 136 -5z m-485 -45 c0 -2 -7 -7 -16 -10
-8 -3 -12 -2 -9 4 6 10 25 14 25 6z m580 -22 c80 -18 193 -72 240 -114 l35
-31 -50 33 c-27 19 -66 40 -85 47 -98 38 -174 62 -222 70 -43 7 -47 9 -18 10
19 0 64 -6 100 -15z m-913 -106 c-51 -51 -110 -114 -131 -140 -22 -27 -41 -46
-43 -44 -2 2 8 26 23 54 37 71 159 196 177 180 1 -2 16 7 32 19 17 12 31 23
32 23 1 0 -39 -42 -90 -92z m-163 40 c-22 -24 -53 -58 -67 -76 -32 -40 -36
-33 -6 11 20 30 98 107 109 107 2 0 -14 -19 -36 -42z m1381 -98 c3 -5 1 -10
-4 -10 -6 0 -11 5 -11 10 0 6 2 10 4 10 3 0 8 -4 11 -10z m-1051 -54 c-22 -24
-43 -45 -49 -45 -5 -1 11 19 35 44 56 58 64 58 14 1z m1150 -56 c-6 -6 -53 52
-53 65 0 6 13 -6 28 -25 16 -19 27 -37 25 -40z m-1612 -139 c-15 -43 -29 -77
-31 -75 -9 8 34 154 45 154 9 0 4 -25 -14 -79z m-48 -401 c10 -69 26 -160 38
-203 11 -43 18 -80 15 -84 -9 -9 -35 63 -53 145 -15 75 -32 282 -21 272 2 -3
12 -61 21 -130z m241 -545 c48 -67 155 -173 229 -229 56 -42 50 -49 -9 -9 -67
44 -95 70 -167 156 -80 94 -154 208 -163 252 -4 18 8 2 30 -40 20 -38 56 -97
80 -130z"/>
<path d="M1498 2213 c7 -3 16 -2 19 1 4 3 -2 6 -13 5 -11 0 -14 -3 -6 -6z"/>
<path d="M1600 2182 c41 -16 89 -34 105 -41 17 -7 26 -8 20 -3 -15 15 -125 59
-165 66 -19 3 -1 -7 40 -22z"/>
<path d="M738 2092 c-59 -34 -165 -128 -209 -184 -20 -26 -2 -11 47 37 44 44
107 98 140 120 94 62 104 75 22 27z"/>
<path d="M1920 2117 c0 -2 30 -30 67 -63 51 -45 62 -51 45 -26 -25 35 -112
104 -112 89z"/>
<path d="M1911 1930 c36 -36 87 -94 112 -129 26 -35 47 -60 47 -57 0 17 -83
125 -127 166 -81 76 -102 89 -32 20z"/>
<path d="M2185 1805 c25 -44 48 -88 51 -97 3 -10 10 -18 16 -18 13 0 4 23 -35
87 -54 90 -79 112 -32 28z"/>
<path d="M730 906 c0 -2 8 -10 18 -17 15 -13 16 -12 3 4 -13 16 -21 21 -21 13z"/>
<path d="M690 784 c67 -87 157 -169 238 -216 83 -47 72 -26 -15 28 -43 26
-114 84 -158 128 -44 44 -73 71 -65 60z"/>
</g>
</svg>
